<svg xmlns="http://www.w3.org/2000/svg" xmlns:xlink="http://www.w3.org/1999/xlink" width="40" zoomAndPan="magnify" viewBox="0 0 30 30.000001" height="40" preserveAspectRatio="xMidYMid meet" version="1.0"><defs><g/><clipPath id="c72758a60f"><path d="M 1.171875 0 L 29.480469 0 L 29.480469 28.304688 L 1.171875 28.304688 Z M 1.171875 0 " clip-rule="nonzero"/></clipPath></defs><path fill="#ffffff" d="M 22.46875 10.683594 C 22.324219 9.765625 21.539062 9.109375 20.621094 9.109375 L 10.042969 9.109375 C 9.125 9.109375 8.339844 9.777344 8.195312 10.683594 C 8.066406 11.53125 7.933594 12.710938 7.933594 14.152344 C 7.945312 15.597656 8.066406 16.777344 8.195312 17.621094 C 8.339844 18.527344 9.125 19.195312 10.042969 19.195312 L 20.609375 19.195312 C 21.527344 19.195312 22.324219 18.527344 22.457031 17.621094 C 22.589844 16.765625 22.71875 15.597656 22.71875 14.152344 C 22.71875 12.710938 22.601562 11.53125 22.46875 10.683594 Z M 13.765625 16.167969 L 13.765625 12.148438 L 17.507812 14.164062 Z M 13.765625 16.167969 " fill-opacity="1" fill-rule="nonzero"/><g clip-path="url(#c72758a60f)"><path fill="#ffffff" d="M 15.328125 28.304688 C 7.527344 28.304688 1.171875 21.964844 1.171875 14.152344 C 1.171875 6.355469 7.527344 0 15.328125 0 C 23.125 0 29.480469 6.355469 29.480469 14.152344 C 29.480469 21.964844 23.136719 28.304688 15.328125 28.304688 Z M 15.328125 0.773438 C 7.945312 0.773438 1.949219 6.773438 1.949219 14.152344 C 1.949219 21.535156 7.945312 27.53125 15.328125 27.53125 C 22.707031 27.53125 28.703125 21.535156 28.703125 14.152344 C 28.703125 6.773438 22.707031 0.773438 15.328125 0.773438 Z M 15.328125 0.773438 " fill-opacity="1" fill-rule="nonzero"/></g><g fill="#ffffff" fill-opacity="1"><g transform="translate(7.788004, 24.228335)"><g><path d="M 0.78125 0 C 0.625 0 0.503906 -0.0390625 0.421875 -0.125 C 0.347656 -0.21875 0.320312 -0.347656 0.34375 -0.515625 L 0.984375 -4.5 C 1.035156 -4.789062 1.203125 -4.9375 1.484375 -4.9375 L 2.625 -4.9375 C 3.414062 -4.9375 4.023438 -4.75 4.453125 -4.375 C 4.878906 -4.007812 5.09375 -3.492188 5.09375 -2.828125 C 5.09375 -2.296875 4.988281 -1.816406 4.78125 -1.390625 C 4.570312 -0.960938 4.257812 -0.625 3.84375 -0.375 C 3.425781 -0.125 2.898438 0 2.265625 0 Z M 1.28125 -0.734375 L 2.28125 -0.734375 C 2.71875 -0.734375 3.070312 -0.820312 3.34375 -1 C 3.625 -1.1875 3.828125 -1.4375 3.953125 -1.75 C 4.085938 -2.0625 4.15625 -2.414062 4.15625 -2.8125 C 4.15625 -3.257812 4.023438 -3.597656 3.765625 -3.828125 C 3.515625 -4.066406 3.132812 -4.1875 2.625 -4.1875 L 1.828125 -4.1875 Z M 1.28125 -0.734375 "/></g></g></g><g fill="#ffffff" fill-opacity="1"><g transform="translate(13.116624, 24.228335)"><g><path d="M 2.75 0.0625 C 2.3125 0.0625 1.921875 -0.015625 1.578125 -0.171875 C 1.242188 -0.335938 0.976562 -0.585938 0.78125 -0.921875 C 0.59375 -1.253906 0.5 -1.671875 0.5 -2.171875 C 0.5 -2.566406 0.554688 -2.9375 0.671875 -3.28125 C 0.796875 -3.625 0.96875 -3.925781 1.1875 -4.1875 C 1.414062 -4.445312 1.695312 -4.644531 2.03125 -4.78125 C 2.363281 -4.925781 2.738281 -5 3.15625 -5 C 3.425781 -5 3.6875 -4.960938 3.9375 -4.890625 C 4.1875 -4.828125 4.398438 -4.726562 4.578125 -4.59375 C 4.679688 -4.519531 4.738281 -4.429688 4.75 -4.328125 C 4.769531 -4.222656 4.75 -4.125 4.6875 -4.03125 C 4.632812 -3.9375 4.5625 -3.867188 4.46875 -3.828125 C 4.382812 -3.796875 4.296875 -3.816406 4.203125 -3.890625 C 4.015625 -4.003906 3.832031 -4.082031 3.65625 -4.125 C 3.488281 -4.175781 3.3125 -4.203125 3.125 -4.203125 C 2.769531 -4.203125 2.46875 -4.113281 2.21875 -3.9375 C 1.96875 -3.769531 1.773438 -3.53125 1.640625 -3.21875 C 1.515625 -2.914062 1.453125 -2.578125 1.453125 -2.203125 C 1.453125 -1.679688 1.566406 -1.304688 1.796875 -1.078125 C 2.035156 -0.847656 2.378906 -0.734375 2.828125 -0.734375 C 3.003906 -0.734375 3.171875 -0.753906 3.328125 -0.796875 C 3.484375 -0.835938 3.648438 -0.90625 3.828125 -1 C 3.941406 -1.070312 4.039062 -1.09375 4.125 -1.0625 C 4.21875 -1.03125 4.285156 -0.96875 4.328125 -0.875 C 4.367188 -0.78125 4.378906 -0.679688 4.359375 -0.578125 C 4.347656 -0.484375 4.285156 -0.40625 4.171875 -0.34375 C 3.972656 -0.207031 3.742188 -0.101562 3.484375 -0.03125 C 3.222656 0.03125 2.976562 0.0625 2.75 0.0625 Z M 2.75 0.0625 "/></g></g></g><g fill="#ffffff" fill-opacity="1"><g transform="translate(17.87183, 24.228335)"><g><path d="M 0.359375 0.0625 C 0.203125 0.0625 0.0859375 0.0078125 0.015625 -0.09375 C -0.0546875 -0.207031 -0.0507812 -0.335938 0.03125 -0.484375 L 2.609375 -4.6875 C 2.671875 -4.789062 2.738281 -4.863281 2.8125 -4.90625 C 2.894531 -4.957031 2.992188 -4.984375 3.109375 -4.984375 C 3.359375 -4.984375 3.515625 -4.863281 3.578125 -4.625 L 4.78125 -0.5 C 4.84375 -0.3125 4.832031 -0.171875 4.75 -0.078125 C 4.675781 0.015625 4.570312 0.0625 4.4375 0.0625 C 4.300781 0.0625 4.195312 0.03125 4.125 -0.03125 C 4.0625 -0.101562 4.015625 -0.207031 3.984375 -0.34375 L 3.765625 -1.140625 L 1.359375 -1.140625 L 0.8125 -0.203125 C 0.707031 -0.0234375 0.554688 0.0625 0.359375 0.0625 Z M 3.015625 -3.96875 L 1.765625 -1.859375 L 3.578125 -1.859375 L 3.03125 -3.96875 Z M 3.015625 -3.96875 "/></g></g></g></svg>