<svg xmlns="http://www.w3.org/2000/svg" xmlns:xlink="http://www.w3.org/1999/xlink" width="40" zoomAndPan="magnify" viewBox="0 0 30 30.000001" height="40" preserveAspectRatio="xMidYMid meet" version="1.0"><defs><g/><clipPath id="e03eacdadc"><path d="M 1.171875 0 L 29.480469 0 L 29.480469 28.304688 L 1.171875 28.304688 Z M 1.171875 0 " clip-rule="nonzero"/></clipPath></defs><path fill="#ffffff" d="M 22.46875 10.683594 C 22.324219 9.765625 21.539062 9.109375 20.621094 9.109375 L 10.042969 9.109375 C 9.125 9.109375 8.339844 9.777344 8.195312 10.683594 C 8.066406 11.53125 7.933594 12.710938 7.933594 14.152344 C 7.945312 15.597656 8.066406 16.777344 8.195312 17.621094 C 8.339844 18.527344 9.125 19.195312 10.042969 19.195312 L 20.609375 19.195312 C 21.527344 19.195312 22.324219 18.527344 22.457031 17.621094 C 22.589844 16.765625 22.71875 15.597656 22.71875 14.152344 C 22.71875 12.710938 22.601562 11.53125 22.46875 10.683594 Z M 13.765625 16.167969 L 13.765625 12.148438 L 17.507812 14.164062 Z M 13.765625 16.167969 " fill-opacity="1" fill-rule="nonzero"/><g clip-path="url(#e03eacdadc)"><path fill="#ffffff" d="M 15.328125 28.304688 C 7.527344 28.304688 1.171875 21.964844 1.171875 14.152344 C 1.171875 6.355469 7.527344 0 15.328125 0 C 23.125 0 29.480469 6.355469 29.480469 14.152344 C 29.480469 21.964844 23.136719 28.304688 15.328125 28.304688 Z M 15.328125 0.773438 C 7.945312 0.773438 1.949219 6.773438 1.949219 14.152344 C 1.949219 21.535156 7.945312 27.53125 15.328125 27.53125 C 22.707031 27.53125 28.703125 21.535156 28.703125 14.152344 C 28.703125 6.773438 22.707031 0.773438 15.328125 0.773438 Z M 15.328125 0.773438 " fill-opacity="1" fill-rule="nonzero"/></g><g fill="#ffffff" fill-opacity="1"><g transform="translate(7.118325, 24.692928)"><g><path d="M 2.453125 0.078125 C 2.023438 0.078125 1.65625 -0.00390625 1.34375 -0.171875 C 1.039062 -0.347656 0.816406 -0.601562 0.671875 -0.9375 C 0.535156 -1.28125 0.507812 -1.707031 0.59375 -2.21875 L 0.984375 -4.703125 C 1.023438 -4.992188 1.191406 -5.140625 1.484375 -5.140625 C 1.640625 -5.140625 1.753906 -5.09375 1.828125 -5 C 1.898438 -4.914062 1.921875 -4.789062 1.890625 -4.625 L 1.5 -2.140625 C 1.425781 -1.679688 1.472656 -1.328125 1.640625 -1.078125 C 1.816406 -0.835938 2.109375 -0.71875 2.515625 -0.71875 C 2.910156 -0.71875 3.222656 -0.816406 3.453125 -1.015625 C 3.679688 -1.222656 3.832031 -1.550781 3.90625 -2 L 4.34375 -4.703125 C 4.382812 -4.992188 4.550781 -5.140625 4.84375 -5.140625 C 4.988281 -5.140625 5.09375 -5.09375 5.15625 -5 C 5.226562 -4.914062 5.253906 -4.789062 5.234375 -4.625 L 4.828125 -2.015625 C 4.722656 -1.328125 4.476562 -0.804688 4.09375 -0.453125 C 3.71875 -0.0976562 3.171875 0.078125 2.453125 0.078125 Z M 2.453125 0.078125 "/></g></g></g><g fill="#ffffff" fill-opacity="1"><g transform="translate(12.429395, 24.692928)"><g><path d="M 0.8125 0 C 0.644531 0 0.519531 -0.046875 0.4375 -0.140625 C 0.351562 -0.234375 0.328125 -0.363281 0.359375 -0.53125 L 1.015625 -4.625 C 1.066406 -4.925781 1.238281 -5.078125 1.53125 -5.078125 L 2.703125 -5.078125 C 3.515625 -5.078125 4.140625 -4.882812 4.578125 -4.5 C 5.015625 -4.125 5.234375 -3.59375 5.234375 -2.90625 C 5.234375 -2.363281 5.125 -1.867188 4.90625 -1.421875 C 4.695312 -0.984375 4.378906 -0.632812 3.953125 -0.375 C 3.523438 -0.125 2.984375 0 2.328125 0 Z M 1.3125 -0.765625 L 2.34375 -0.765625 C 2.789062 -0.765625 3.15625 -0.859375 3.4375 -1.046875 C 3.726562 -1.234375 3.9375 -1.488281 4.0625 -1.8125 C 4.195312 -2.132812 4.265625 -2.492188 4.265625 -2.890625 C 4.265625 -3.359375 4.132812 -3.710938 3.875 -3.953125 C 3.613281 -4.191406 3.222656 -4.3125 2.703125 -4.3125 L 1.875 -4.3125 Z M 1.3125 -0.765625 "/></g></g></g><g fill="#ffffff" fill-opacity="1"><g transform="translate(17.913178, 24.692928)"><g><path d="M 0.8125 0 C 0.644531 0 0.519531 -0.046875 0.4375 -0.140625 C 0.351562 -0.234375 0.328125 -0.363281 0.359375 -0.53125 L 1.015625 -4.625 C 1.066406 -4.925781 1.238281 -5.078125 1.53125 -5.078125 L 2.703125 -5.078125 C 3.515625 -5.078125 4.140625 -4.882812 4.578125 -4.5 C 5.015625 -4.125 5.234375 -3.59375 5.234375 -2.90625 C 5.234375 -2.363281 5.125 -1.867188 4.90625 -1.421875 C 4.695312 -0.984375 4.378906 -0.632812 3.953125 -0.375 C 3.523438 -0.125 2.984375 0 2.328125 0 Z M 1.3125 -0.765625 L 2.34375 -0.765625 C 2.789062 -0.765625 3.15625 -0.859375 3.4375 -1.046875 C 3.726562 -1.234375 3.9375 -1.488281 4.0625 -1.8125 C 4.195312 -2.132812 4.265625 -2.492188 4.265625 -2.890625 C 4.265625 -3.359375 4.132812 -3.710938 3.875 -3.953125 C 3.613281 -4.191406 3.222656 -4.3125 2.703125 -4.3125 L 1.875 -4.3125 Z M 1.3125 -0.765625 "/></g></g></g></svg>