<svg xmlns="http://www.w3.org/2000/svg" xmlns:xlink="http://www.w3.org/1999/xlink" width="40" zoomAndPan="magnify" viewBox="0 0 30 30.000001" height="40" preserveAspectRatio="xMidYMid meet" version="1.0"><defs><g/><clipPath id="bf8c7fd6df"><path d="M 0.484375 0 L 29.515625 0 L 29.515625 29.03125 L 0.484375 29.03125 Z M 0.484375 0 " clip-rule="nonzero"/></clipPath></defs><path fill="#ffffff" d="M 21.382812 11.324219 C 21.382812 11.324219 21.605469 15.960938 18.070312 18.820312 C 12.796875 23.101562 7.113281 19.628906 7.113281 19.628906 C 7.113281 19.628906 8.492188 19.652344 9.71875 19.320312 C 10.941406 18.992188 11.808594 18.210938 11.808594 18.210938 C 11.808594 18.210938 10.476562 17.929688 9.789062 17.425781 C 9.09375 16.925781 8.835938 15.960938 8.835938 15.960938 C 8.835938 15.960938 9.289062 15.996094 9.582031 15.996094 C 9.875 15.984375 10.230469 15.847656 10.230469 15.847656 C 10.230469 15.847656 9.277344 15.738281 8.382812 14.734375 C 7.6875 13.953125 7.734375 12.644531 7.734375 12.644531 C 7.734375 12.644531 8.152344 12.890625 8.382812 12.949219 C 8.605469 13.011719 9.03125 13.011719 9.03125 13.011719 C 9.03125 13.011719 8.199219 12.511719 7.820312 11.238281 C 7.453125 9.953125 8.164062 8.660156 8.164062 8.660156 C 8.164062 8.660156 9.386719 10.148438 11.234375 11.117188 C 13.078125 12.082031 14.816406 12.046875 14.816406 12.046875 C 14.816406 12.046875 14.558594 11.273438 15 10.148438 C 15.441406 9.011719 16.441406 8.207031 17.960938 8.082031 C 19.476562 7.960938 20.441406 9.109375 20.441406 9.109375 C 20.441406 9.109375 20.90625 9.023438 21.445312 8.828125 C 21.984375 8.632812 22.507812 8.390625 22.507812 8.390625 C 22.507812 8.390625 22.324219 8.964844 21.957031 9.417969 C 21.589844 9.867188 21.175781 10.136719 21.175781 10.136719 C 21.175781 10.136719 21.652344 10.101562 22.128906 9.96875 C 22.605469 9.832031 22.875 9.699219 22.875 9.699219 C 22.351562 10.628906 21.382812 11.324219 21.382812 11.324219 Z M 21.382812 11.324219 " fill-opacity="1" fill-rule="nonzero"/><g clip-path="url(#bf8c7fd6df)"><path fill="#ffffff" d="M 15 29.03125 C 7.003906 29.03125 0.484375 22.527344 0.484375 14.515625 C 0.484375 6.507812 7.003906 0 15 0 C 22.996094 0 29.515625 6.519531 29.515625 14.515625 C 29.515625 22.515625 23.011719 29.03125 15 29.03125 Z M 15 0.792969 C 7.429688 0.792969 1.277344 6.945312 1.277344 14.515625 C 1.277344 22.085938 7.429688 28.238281 15 28.238281 C 22.570312 28.238281 28.722656 22.085938 28.722656 14.515625 C 28.722656 6.945312 22.570312 0.792969 15 0.792969 Z M 15 0.792969 " fill-opacity="1" fill-rule="nonzero"/></g><g fill="#ffffff" fill-opacity="1"><g transform="translate(7.531905, 25.384203)"><g><path d="M 0.765625 0 C 0.609375 0 0.488281 -0.0390625 0.40625 -0.125 C 0.332031 -0.21875 0.3125 -0.34375 0.34375 -0.5 L 0.953125 -4.390625 C 1.003906 -4.671875 1.171875 -4.8125 1.453125 -4.8125 L 2.5625 -4.8125 C 3.332031 -4.8125 3.925781 -4.628906 4.34375 -4.265625 C 4.757812 -3.910156 4.96875 -3.410156 4.96875 -2.765625 C 4.96875 -2.242188 4.863281 -1.773438 4.65625 -1.359375 C 4.457031 -0.941406 4.15625 -0.609375 3.75 -0.359375 C 3.34375 -0.117188 2.828125 0 2.203125 0 Z M 1.25 -0.71875 L 2.21875 -0.71875 C 2.644531 -0.71875 2.992188 -0.804688 3.265625 -0.984375 C 3.535156 -1.160156 3.734375 -1.398438 3.859375 -1.703125 C 3.984375 -2.015625 4.046875 -2.363281 4.046875 -2.75 C 4.046875 -3.1875 3.921875 -3.519531 3.671875 -3.75 C 3.429688 -3.976562 3.0625 -4.09375 2.5625 -4.09375 L 1.78125 -4.09375 Z M 1.25 -0.71875 "/></g></g></g><g fill="#ffffff" fill-opacity="1"><g transform="translate(12.737952, 25.384203)"><g><path d="M 2.6875 0.0625 C 2.257812 0.0625 1.878906 -0.015625 1.546875 -0.171875 C 1.210938 -0.335938 0.953125 -0.582031 0.765625 -0.90625 C 0.578125 -1.226562 0.484375 -1.628906 0.484375 -2.109375 C 0.484375 -2.503906 0.539062 -2.867188 0.65625 -3.203125 C 0.769531 -3.535156 0.9375 -3.828125 1.15625 -4.078125 C 1.382812 -4.328125 1.660156 -4.519531 1.984375 -4.65625 C 2.304688 -4.800781 2.671875 -4.875 3.078125 -4.875 C 3.335938 -4.875 3.585938 -4.835938 3.828125 -4.765625 C 4.078125 -4.703125 4.289062 -4.609375 4.46875 -4.484375 C 4.570312 -4.410156 4.628906 -4.320312 4.640625 -4.21875 C 4.648438 -4.113281 4.628906 -4.015625 4.578125 -3.921875 C 4.523438 -3.835938 4.453125 -3.773438 4.359375 -3.734375 C 4.273438 -3.703125 4.1875 -3.722656 4.09375 -3.796875 C 3.914062 -3.910156 3.742188 -3.988281 3.578125 -4.03125 C 3.410156 -4.082031 3.234375 -4.109375 3.046875 -4.109375 C 2.703125 -4.109375 2.40625 -4.019531 2.15625 -3.84375 C 1.914062 -3.675781 1.726562 -3.441406 1.59375 -3.140625 C 1.46875 -2.847656 1.40625 -2.515625 1.40625 -2.140625 C 1.40625 -1.640625 1.519531 -1.273438 1.75 -1.046875 C 1.988281 -0.816406 2.328125 -0.703125 2.765625 -0.703125 C 2.929688 -0.703125 3.09375 -0.722656 3.25 -0.765625 C 3.40625 -0.804688 3.566406 -0.875 3.734375 -0.96875 C 3.847656 -1.039062 3.945312 -1.0625 4.03125 -1.03125 C 4.125 -1 4.1875 -0.9375 4.21875 -0.84375 C 4.257812 -0.757812 4.269531 -0.671875 4.25 -0.578125 C 4.238281 -0.484375 4.179688 -0.398438 4.078125 -0.328125 C 3.878906 -0.191406 3.65625 -0.09375 3.40625 -0.03125 C 3.15625 0.03125 2.914062 0.0625 2.6875 0.0625 Z M 2.6875 0.0625 "/></g></g></g><g fill="#ffffff" fill-opacity="1"><g transform="translate(17.383775, 25.384203)"><g><path d="M 0.359375 0.046875 C 0.203125 0.046875 0.0859375 0 0.015625 -0.09375 C -0.0546875 -0.195312 -0.0507812 -0.320312 0.03125 -0.46875 L 2.546875 -4.5625 C 2.609375 -4.664062 2.675781 -4.742188 2.75 -4.796875 C 2.832031 -4.847656 2.925781 -4.875 3.03125 -4.875 C 3.269531 -4.875 3.425781 -4.753906 3.5 -4.515625 L 4.671875 -0.484375 C 4.722656 -0.304688 4.710938 -0.171875 4.640625 -0.078125 C 4.566406 0.00390625 4.460938 0.046875 4.328125 0.046875 C 4.203125 0.046875 4.101562 0.015625 4.03125 -0.046875 C 3.96875 -0.109375 3.921875 -0.203125 3.890625 -0.328125 L 3.6875 -1.109375 L 1.328125 -1.109375 L 0.796875 -0.203125 C 0.691406 -0.0351562 0.546875 0.046875 0.359375 0.046875 Z M 2.9375 -3.859375 L 1.734375 -1.8125 L 3.484375 -1.8125 L 2.953125 -3.859375 Z M 2.9375 -3.859375 "/></g></g></g></svg>