<svg xmlns="http://www.w3.org/2000/svg" xmlns:xlink="http://www.w3.org/1999/xlink" width="40" zoomAndPan="magnify" viewBox="0 0 30 30.000001" height="40" preserveAspectRatio="xMidYMid meet" version="1.0"><defs><g/><clipPath id="aaf3221e45"><path d="M 0.484375 0 L 29.515625 0 L 29.515625 29.03125 L 0.484375 29.03125 Z M 0.484375 0 " clip-rule="nonzero"/></clipPath></defs><path fill="#ffffff" d="M 21.382812 11.324219 C 21.382812 11.324219 21.605469 15.960938 18.070312 18.820312 C 12.796875 23.101562 7.113281 19.628906 7.113281 19.628906 C 7.113281 19.628906 8.492188 19.652344 9.71875 19.320312 C 10.941406 18.992188 11.808594 18.210938 11.808594 18.210938 C 11.808594 18.210938 10.476562 17.929688 9.789062 17.425781 C 9.09375 16.925781 8.835938 15.960938 8.835938 15.960938 C 8.835938 15.960938 9.289062 15.996094 9.582031 15.996094 C 9.875 15.984375 10.230469 15.847656 10.230469 15.847656 C 10.230469 15.847656 9.277344 15.738281 8.382812 14.734375 C 7.6875 13.953125 7.734375 12.644531 7.734375 12.644531 C 7.734375 12.644531 8.152344 12.890625 8.382812 12.949219 C 8.605469 13.011719 9.03125 13.011719 9.03125 13.011719 C 9.03125 13.011719 8.199219 12.511719 7.820312 11.238281 C 7.453125 9.953125 8.164062 8.660156 8.164062 8.660156 C 8.164062 8.660156 9.386719 10.148438 11.234375 11.117188 C 13.078125 12.082031 14.816406 12.046875 14.816406 12.046875 C 14.816406 12.046875 14.558594 11.273438 15 10.148438 C 15.441406 9.011719 16.441406 8.207031 17.960938 8.082031 C 19.476562 7.960938 20.441406 9.109375 20.441406 9.109375 C 20.441406 9.109375 20.90625 9.023438 21.445312 8.828125 C 21.984375 8.632812 22.507812 8.390625 22.507812 8.390625 C 22.507812 8.390625 22.324219 8.964844 21.957031 9.417969 C 21.589844 9.867188 21.175781 10.136719 21.175781 10.136719 C 21.175781 10.136719 21.652344 10.101562 22.128906 9.96875 C 22.605469 9.832031 22.875 9.699219 22.875 9.699219 C 22.351562 10.628906 21.382812 11.324219 21.382812 11.324219 Z M 21.382812 11.324219 " fill-opacity="1" fill-rule="nonzero"/><g clip-path="url(#aaf3221e45)"><path fill="#ffffff" d="M 15 29.03125 C 7.003906 29.03125 0.484375 22.527344 0.484375 14.515625 C 0.484375 6.507812 7.003906 0 15 0 C 22.996094 0 29.515625 6.519531 29.515625 14.515625 C 29.515625 22.515625 23.011719 29.03125 15 29.03125 Z M 15 0.792969 C 7.429688 0.792969 1.277344 6.945312 1.277344 14.515625 C 1.277344 22.085938 7.429688 28.238281 15 28.238281 C 22.570312 28.238281 28.722656 22.085938 28.722656 14.515625 C 28.722656 6.945312 22.570312 0.792969 15 0.792969 Z M 15 0.792969 " fill-opacity="1" fill-rule="nonzero"/></g><g fill="#ffffff" fill-opacity="1"><g transform="translate(7.060017, 25.865781)"><g><path d="M 2.4375 0.078125 C 2.007812 0.078125 1.640625 -0.00390625 1.328125 -0.171875 C 1.023438 -0.335938 0.804688 -0.585938 0.671875 -0.921875 C 0.535156 -1.265625 0.503906 -1.6875 0.578125 -2.1875 L 0.984375 -4.65625 C 1.023438 -4.945312 1.191406 -5.09375 1.484375 -5.09375 C 1.628906 -5.09375 1.734375 -5.046875 1.796875 -4.953125 C 1.867188 -4.867188 1.894531 -4.742188 1.875 -4.578125 L 1.5 -2.125 C 1.425781 -1.664062 1.472656 -1.316406 1.640625 -1.078125 C 1.804688 -0.835938 2.09375 -0.71875 2.5 -0.71875 C 2.882812 -0.71875 3.191406 -0.816406 3.421875 -1.015625 C 3.648438 -1.222656 3.800781 -1.546875 3.875 -1.984375 L 4.296875 -4.65625 C 4.335938 -4.945312 4.503906 -5.09375 4.796875 -5.09375 C 4.941406 -5.09375 5.050781 -5.046875 5.125 -4.953125 C 5.195312 -4.867188 5.21875 -4.742188 5.1875 -4.578125 L 4.78125 -2 C 4.675781 -1.320312 4.4375 -0.804688 4.0625 -0.453125 C 3.6875 -0.0976562 3.144531 0.078125 2.4375 0.078125 Z M 2.4375 0.078125 "/></g></g></g><g fill="#ffffff" fill-opacity="1"><g transform="translate(12.332995, 25.865781)"><g><path d="M 0.796875 0 C 0.640625 0 0.519531 -0.046875 0.4375 -0.140625 C 0.351562 -0.234375 0.328125 -0.359375 0.359375 -0.515625 L 1 -4.59375 C 1.050781 -4.882812 1.222656 -5.03125 1.515625 -5.03125 L 2.6875 -5.03125 C 3.488281 -5.03125 4.101562 -4.84375 4.53125 -4.46875 C 4.96875 -4.09375 5.1875 -3.566406 5.1875 -2.890625 C 5.1875 -2.347656 5.082031 -1.859375 4.875 -1.421875 C 4.664062 -0.984375 4.347656 -0.632812 3.921875 -0.375 C 3.492188 -0.125 2.957031 0 2.3125 0 Z M 1.3125 -0.75 L 2.328125 -0.75 C 2.765625 -0.75 3.125 -0.84375 3.40625 -1.03125 C 3.6875 -1.21875 3.894531 -1.46875 4.03125 -1.78125 C 4.164062 -2.101562 4.234375 -2.46875 4.234375 -2.875 C 4.234375 -3.332031 4.101562 -3.679688 3.84375 -3.921875 C 3.582031 -4.160156 3.195312 -4.28125 2.6875 -4.28125 L 1.859375 -4.28125 Z M 1.3125 -0.75 "/></g></g></g><g fill="#ffffff" fill-opacity="1"><g transform="translate(17.777448, 25.865781)"><g><path d="M 0.796875 0 C 0.640625 0 0.519531 -0.046875 0.4375 -0.140625 C 0.351562 -0.234375 0.328125 -0.359375 0.359375 -0.515625 L 1 -4.59375 C 1.050781 -4.882812 1.222656 -5.03125 1.515625 -5.03125 L 2.6875 -5.03125 C 3.488281 -5.03125 4.101562 -4.84375 4.53125 -4.46875 C 4.96875 -4.09375 5.1875 -3.566406 5.1875 -2.890625 C 5.1875 -2.347656 5.082031 -1.859375 4.875 -1.421875 C 4.664062 -0.984375 4.347656 -0.632812 3.921875 -0.375 C 3.492188 -0.125 2.957031 0 2.3125 0 Z M 1.3125 -0.75 L 2.328125 -0.75 C 2.765625 -0.75 3.125 -0.84375 3.40625 -1.03125 C 3.6875 -1.21875 3.894531 -1.46875 4.03125 -1.78125 C 4.164062 -2.101562 4.234375 -2.46875 4.234375 -2.875 C 4.234375 -3.332031 4.101562 -3.679688 3.84375 -3.921875 C 3.582031 -4.160156 3.195312 -4.28125 2.6875 -4.28125 L 1.859375 -4.28125 Z M 1.3125 -0.75 "/></g></g></g></svg>