<svg xmlns="http://www.w3.org/2000/svg" xmlns:xlink="http://www.w3.org/1999/xlink" width="40" zoomAndPan="magnify" viewBox="0 0 30 30.000001" height="40" preserveAspectRatio="xMidYMid meet" version="1.0"><defs><clipPath id="60592d8d56"><path d="M 0.484375 0 L 29.515625 0 L 29.515625 29.03125 L 0.484375 29.03125 Z M 0.484375 0 " clip-rule="nonzero"/></clipPath><clipPath id="b945fa2dbe"><path d="M 5.238281 6.398438 L 24.835938 6.398438 L 24.835938 20.914062 L 5.238281 20.914062 Z M 5.238281 6.398438 " clip-rule="nonzero"/></clipPath></defs><g clip-path="url(#60592d8d56)"><path fill="#ffffff" d="M 15 29.03125 C 6.980469 29.03125 0.484375 22.492188 0.484375 14.515625 C 0.484375 6.542969 6.980469 0 15 0 C 23.019531 0 29.515625 6.496094 29.515625 14.515625 C 29.515625 22.535156 22.976562 29.03125 15 29.03125 Z M 15 0.894531 C 7.472656 0.894531 1.378906 6.988281 1.378906 14.515625 C 1.378906 22.042969 7.472656 28.136719 15 28.136719 C 22.527344 28.136719 28.621094 22.042969 28.621094 14.515625 C 28.621094 6.988281 22.480469 0.894531 15 0.894531 Z M 15 0.894531 " fill-opacity="1" fill-rule="nonzero"/></g><g clip-path="url(#b945fa2dbe)"><path fill="#ffffff" d="M 11.222656 6.695312 C 10.132812 6.925781 8.90625 7.425781 8.238281 7.925781 C 7.824219 8.222656 7.644531 8.476562 7.265625 9.269531 C 6.257812 11.359375 5.496094 14.390625 5.335938 16.9375 C 5.261719 18.039062 5.261719 18.050781 5.570312 18.484375 C 6.207031 19.417969 7.804688 20.320312 9.476562 20.703125 C 10.015625 20.828125 10.566406 20.914062 10.707031 20.890625 C 10.875 20.871094 11.148438 20.617188 11.519531 20.117188 C 11.847656 19.671875 12.144531 19.375 12.261719 19.386719 C 12.359375 19.398438 12.8125 19.449219 13.269531 19.523438 C 14.328125 19.671875 15.746094 19.671875 16.804688 19.523438 C 17.261719 19.449219 17.714844 19.398438 17.808594 19.386719 C 17.925781 19.375 18.222656 19.671875 18.550781 20.117188 C 18.921875 20.617188 19.199219 20.871094 19.367188 20.890625 C 19.503906 20.914062 20.054688 20.828125 20.59375 20.703125 C 22.269531 20.320312 23.867188 19.417969 24.503906 18.484375 C 24.808594 18.050781 24.808594 18.039062 24.734375 16.957031 C 24.578125 14.390625 23.8125 11.382812 22.808594 9.269531 C 22.425781 8.476562 22.246094 8.222656 21.835938 7.925781 C 21.125 7.40625 19.917969 6.925781 18.65625 6.664062 C 17.441406 6.417969 17.292969 6.449219 17.101562 7.023438 L 16.972656 7.382812 L 13.089844 7.382812 L 13.015625 7.097656 C 12.832031 6.429688 12.664062 6.398438 11.222656 6.695312 Z M 19.855469 7.871094 C 20.996094 8.253906 21.546875 8.675781 21.960938 9.449219 C 22.882812 11.210938 23.71875 14.476562 23.886719 16.9375 L 23.960938 17.890625 L 23.410156 18.398438 C 22.765625 19.003906 21.664062 19.554688 20.488281 19.851562 L 19.640625 20.074219 L 19.304688 19.671875 C 19.113281 19.449219 18.953125 19.21875 18.953125 19.152344 C 18.953125 19.101562 19.324219 18.886719 19.78125 18.707031 C 20.734375 18.304688 21.601562 17.699219 21.601562 17.433594 C 21.601562 17.210938 21.410156 16.988281 21.210938 16.988281 C 21.136719 16.988281 20.816406 17.160156 20.511719 17.359375 C 19.8125 17.828125 18.871094 18.210938 17.703125 18.496094 C 16.382812 18.824219 13.691406 18.824219 12.367188 18.496094 C 11.203125 18.210938 10.261719 17.828125 9.5625 17.359375 C 9.253906 17.160156 8.9375 16.988281 8.863281 16.988281 C 8.660156 16.988281 8.472656 17.210938 8.472656 17.433594 C 8.472656 17.699219 9.339844 18.304688 10.304688 18.707031 C 10.746094 18.886719 11.117188 19.101562 11.117188 19.152344 C 11.117188 19.21875 10.960938 19.449219 10.769531 19.671875 L 10.429688 20.074219 L 9.582031 19.851562 C 8.40625 19.554688 7.308594 19.003906 6.660156 18.398438 L 6.121094 17.890625 L 6.183594 16.9375 C 6.363281 14.425781 7.234375 11.09375 8.164062 9.355469 C 8.40625 8.898438 8.609375 8.675781 9.03125 8.421875 C 9.710938 8.007812 10.96875 7.574219 11.722656 7.480469 C 12.539062 7.382812 12.429688 7.59375 11.519531 7.871094 C 11.097656 8 10.386719 8.285156 9.933594 8.519531 C 9.246094 8.867188 9.105469 8.972656 9.105469 9.195312 C 9.105469 9.683594 9.445312 9.714844 10.238281 9.324219 C 11.785156 8.550781 13.128906 8.253906 15.035156 8.253906 C 16.964844 8.253906 18.011719 8.476562 19.714844 9.269531 C 20.488281 9.632812 20.667969 9.683594 20.808594 9.566406 C 20.890625 9.492188 20.964844 9.324219 20.964844 9.1875 C 20.964844 8.972656 20.816406 8.855469 20.140625 8.519531 C 19.683594 8.285156 18.976562 8 18.550781 7.871094 C 17.832031 7.648438 17.703125 7.5625 17.851562 7.425781 C 17.925781 7.351562 19.007812 7.59375 19.855469 7.871094 Z M 19.855469 7.871094 " fill-opacity="1" fill-rule="nonzero"/></g><path fill="#ffffff" d="M 11.59375 12.578125 C 10.21875 13.195312 9.976562 15.175781 11.148438 16.214844 C 12.082031 17.03125 13.4375 16.660156 13.988281 15.453125 C 14.738281 13.796875 13.152344 11.890625 11.59375 12.578125 Z M 12.792969 13.449219 C 13.363281 13.839844 13.5 14.710938 13.097656 15.304688 C 12.644531 15.984375 11.921875 15.984375 11.46875 15.304688 C 10.929688 14.5 11.425781 13.277344 12.285156 13.277344 C 12.429688 13.277344 12.664062 13.351562 12.792969 13.449219 Z M 12.792969 13.449219 " fill-opacity="1" fill-rule="nonzero"/><path fill="#ffffff" d="M 17.101562 12.578125 C 15.722656 13.195312 15.480469 15.175781 16.65625 16.214844 C 17.589844 17.03125 18.945312 16.660156 19.492188 15.453125 C 20.246094 13.796875 18.65625 11.890625 17.101562 12.578125 Z M 18.296875 13.449219 C 18.871094 13.839844 19.007812 14.710938 18.605469 15.304688 C 18.148438 15.984375 17.429688 15.984375 16.972656 15.304688 C 16.433594 14.5 16.929688 13.277344 17.789062 13.277344 C 17.9375 13.277344 18.171875 13.351562 18.296875 13.449219 Z M 18.296875 13.449219 " fill-opacity="1" fill-rule="nonzero"/></svg>