<svg xmlns="http://www.w3.org/2000/svg" xmlns:xlink="http://www.w3.org/1999/xlink" width="1024" zoomAndPan="magnify" viewBox="0 0 768 767.999994" height="1024" preserveAspectRatio="xMidYMid meet" version="1.0"><defs><clipPath id="6d50306b17"><path d="M 12.554688 12.554688 L 767.804688 12.554688 L 767.804688 767.804688 L 12.554688 767.804688 Z M 12.554688 12.554688 " clip-rule="nonzero"/></clipPath></defs><g clip-path="url(#6d50306b17)"><path fill="#444343" d="M 390.179688 12.167969 C 181.429688 12.167969 12.167969 181.429688 12.167969 390.179688 C 12.167969 598.929688 181.429688 768.21875 390.179688 768.21875 C 598.929688 768.21875 768.21875 598.929688 768.21875 390.179688 C 768.21875 181.429688 598.929688 12.167969 390.179688 12.167969 Z M 468.871094 598.03125 C 449.414062 605.714844 433.925781 611.539062 422.308594 615.570312 C 410.722656 619.601562 397.25 621.617188 381.921875 621.617188 C 358.367188 621.617188 340.03125 615.859375 326.976562 604.367188 C 313.917969 592.878906 307.421875 578.320312 307.421875 560.621094 C 307.421875 553.742188 307.902344 546.703125 308.863281 539.53125 C 309.851562 532.363281 311.421875 524.300781 313.566406 515.242188 L 337.917969 429.222656 C 340.0625 420.964844 341.917969 413.125 343.390625 405.828125 C 344.863281 398.46875 345.566406 391.714844 345.566406 385.570312 C 345.566406 374.625 343.296875 366.945312 338.785156 362.625 C 334.207031 358.304688 325.597656 356.191406 312.765625 356.191406 C 306.492188 356.191406 300.027344 357.121094 293.40625 359.074219 C 286.84375 361.089844 281.148438 362.914062 276.476562 364.707031 L 282.90625 338.207031 C 298.84375 331.710938 314.109375 326.140625 328.671875 321.535156 C 343.230469 316.863281 356.992188 314.558594 369.953125 314.558594 C 393.347656 314.558594 411.394531 320.253906 424.101562 331.519531 C 436.742188 342.816406 443.109375 357.503906 443.109375 375.554688 C 443.109375 379.296875 442.664062 385.890625 441.796875 395.300781 C 440.933594 404.738281 439.300781 413.347656 436.933594 421.253906 L 412.707031 507.019531 C 410.722656 513.898438 408.964844 521.773438 407.363281 530.570312 C 405.796875 539.371094 405.027344 546.09375 405.027344 550.605469 C 405.027344 562 407.554688 569.773438 412.675781 573.902344 C 417.734375 578.03125 426.597656 580.113281 439.140625 580.113281 C 445.0625 580.113281 451.6875 579.054688 459.175781 577.007812 C 466.601562 574.960938 471.976562 573.136719 475.367188 571.566406 Z M 464.582031 249.914062 C 453.285156 260.410156 439.6875 265.660156 423.78125 265.660156 C 407.90625 265.660156 394.210938 260.410156 382.820312 249.914062 C 371.488281 239.417969 365.761719 226.648438 365.761719 211.734375 C 365.761719 196.855469 371.523438 184.054688 382.820312 173.460938 C 394.210938 162.835938 407.90625 157.554688 423.78125 157.554688 C 439.6875 157.554688 453.320312 162.835938 464.582031 173.460938 C 475.878906 184.054688 481.542969 196.855469 481.542969 211.734375 C 481.542969 226.679688 475.878906 239.417969 464.582031 249.914062 Z M 464.582031 249.914062 " fill-opacity="1" fill-rule="nonzero"/></g></svg>